<svg id="レイヤー_1" data-name="レイヤー 1" xmlns="http://www.w3.org/2000/svg" viewBox="0 0 90.64 77.15"><defs><style>.cls-1{fill:#7a3700;}</style></defs><title>bearkindergarten</title><path class="cls-1" d="M202.41,129.27c.65-.27,2.29-.07,3.41-.18a12,12,0,0,1,1.87-.16,4.53,4.53,0,0,1,1.36.24,1.42,1.42,0,0,1,.26.72,8,8,0,0,1,.21,2.26,14.85,14.85,0,0,0-.28,4,9.88,9.88,0,0,1,.26,2.32c-.08.11-.39.12-.52.13a2.11,2.11,0,0,0-.62.08c-.25.1-1,.45-1.17.38s-.09-.77-.11-1a11.93,11.93,0,0,1-.19-2c0-.13,0-.26,0-.38a37,37,0,0,1,.46-3.81.47.47,0,0,0-.12-.47,1.82,1.82,0,0,0-.68-.46c-.81-.09-3.81,1.16-4.36.77A5.31,5.31,0,0,1,202.41,129.27Zm9.32,1.71a4.9,4.9,0,0,1-.43,2.09c-.17.21-.94,0-1.1-.14a4.5,4.5,0,0,1,.38-2.2l.06-.06A2.1,2.1,0,0,1,211.73,131Zm.64.2a2.37,2.37,0,0,1,1,.12,4.84,4.84,0,0,1-.29,2l-.07,0a2.89,2.89,0,0,1-1.15-.15.18.18,0,0,1-.05-.18c.07-.42.26-.92.37-1.36a2,2,0,0,1,.13-.44Z" transform="translate(-202.12 -75.71)"/><path class="cls-1" d="M218.59,137.64a8.72,8.72,0,0,1,.59.84,4.74,4.74,0,0,1,.95,2.91,13,13,0,0,1-.53,1.39A3.6,3.6,0,0,1,217,145a2.85,2.85,0,0,1-.86.13,6,6,0,0,1-1-.21,3.47,3.47,0,0,1-.77-.25c-.37-.21-.28-1.63-.08-1.95a.29.29,0,0,1,.36-.09,8.33,8.33,0,0,0,1.43.45,2.73,2.73,0,0,0,1.9-1c.1-.25.17-1.66,0-1.76s-.71.44-.83.51a12.91,12.91,0,0,1-2,1,5.73,5.73,0,0,0-1.07.4c-.17.11-.37.62-.54.63a2,2,0,0,1-.64-.27c-.7-.37-1.68-.72-2.27-1.12a3.24,3.24,0,0,1-.85-1.25,5.13,5.13,0,0,1,.54-1.52,3.81,3.81,0,0,1,.75-.75,16.78,16.78,0,0,1,2.6-1.13,7.81,7.81,0,0,0,1.39,0c.18-.08.34-.37.45-.54a2.13,2.13,0,0,0,.31-.57c0-.31-1.91-1.11-1.41-1.82.13-.18.69-1,.87-.84s.35.39.55.53.8.83,1.06.75.11-.45.48-.53c.22,0,.95.43,1.12.53s-.1.43-.21.6V135l.14.11a7.77,7.77,0,0,0,2,.72,5.91,5.91,0,0,1,1.06.3c.25.14-.14.68-.23.85a2.75,2.75,0,0,1-.47.74c-.55.33-3.29-1.5-3.66-1.16a5.26,5.26,0,0,0-.35.52.17.17,0,0,0,.07.23,2.65,2.65,0,0,0,1.66.32Zm-4.82.87c-.07,0-.35,0-.44.06a2.34,2.34,0,0,0-1.42.89,1,1,0,0,0,.05.65c.45.22.74.34,1.06-.16C213.14,139.77,213.92,138.6,213.77,138.51Zm2.94.41c-.23-.16-1.06-.4-1.28-.07s-.29.64-.44.94c0,.05-.17.35-.07.37a4.8,4.8,0,0,0,1.83-1.09.42.42,0,0,0,0-.1Z" transform="translate(-202.12 -75.71)"/><path class="cls-1" d="M224,149.07c-1.81-.67-2.57-1-3.41-2.69a1.37,1.37,0,0,1-.22-.56,6,6,0,0,1,.52-1.65c.2-.42.59-1.38,1.09-1.15.23.11,1.38.57,1.23.93s-.35.56-.48.87a1.88,1.88,0,0,0-.09.93,10.2,10.2,0,0,0,3,1.68c.36.12.77.1,1.14.22.15,0,.12.2.08.33a6.72,6.72,0,0,1-.28.67c-.35.73-.34,1-1.17.85a5.26,5.26,0,0,1-.71-.17Zm4.75-6.57c-.18.51.33,2.71.23,3.11s-1.13,1.06-1.4,1a10.84,10.84,0,0,1-1-.77c-.37-.22-.75-.39-1.12-.61-.15-.1-.26-.22-.18-.43s.4-1,.69-.92.51.3.78.39c.07,0,.16,0,.19-.07a6,6,0,0,0-.16-1.79c-.1-.22-.54-.37-.74-.45-.37-.13-.78-.12-1.13-.26s-.73-.45-1.12-.61c-1-.46-1.33-.28-.75-1.53.11-.24.36-1,.64-.84a4.32,4.32,0,0,1,.58.36,6.43,6.43,0,0,0,1.39.69c.15.06.94.29,1,.12.08-.41-.08-1.28,0-1.52s1.48-.1,1.71,0c.59.21-.19,1.91.24,2.06s1.59-.27,1.75-.22,0,1.45-.06,1.68C230.17,142.45,228.92,142,228.76,142.5Z" transform="translate(-202.12 -75.71)"/><path class="cls-1" d="M231.74,143.85a7.6,7.6,0,0,1,1.2.46,9.84,9.84,0,0,0,1.82.5c.45.09.92,0,1.37.08s.75.1,1.12.16c.64.1,1.25.36,1.88.43.36.05.74,0,1.1.06s.24.12.22.36-.2,2.2-.59,2.16-.69-.14-1-.21c-.54-.11-1.08-.14-1.62-.23s-.9-.21-1.35-.29-1.14-.1-1.7-.21-1-.26-1.45-.37-1-.17-1.53-.3a.72.72,0,0,1-.28-.13,8,8,0,0,1,.43-2.2C231.41,143.81,231.49,143.79,231.74,143.85Z" transform="translate(-202.12 -75.71)"/><path class="cls-1" d="M243.24,143.64a23.59,23.59,0,0,0-.49,3.34c0,.14-.09,1.2-.06,1.39.09-.07.19-.48.3-.65a1.5,1.5,0,0,1,.65,1.07,11.9,11.9,0,0,1-1.26,3.87c-.18.18-.61.15-.85.13s-.33,0-.44,0c-.52-.37,0-5.66,0-6.38a15.15,15.15,0,0,1,.42-2.19c.12-.31.23-.68.32-1s.14-.78.25-1.15c.06-.18.16-.27.31-.26s1.24.1,1.23.42S243.32,143.25,243.24,143.64Zm5.36-2.14a3.92,3.92,0,0,1,.73-.33c.23.1.55,1.19.58,1.51s-.4.59-.61.6-.54-1.08-.63-1.29a5.92,5.92,0,0,0,0,.95c0,.22,0,.73.22.72s.57-.19.86-.21.29.29.31.58a4.52,4.52,0,0,1,0,1.28c-.3.52-1.37-.17-1.31,1a12.35,12.35,0,0,0,.29,2.31c.34.54,2,1.17,2.07,1.73,0,.22-.34,1.42-.57,1.44s-.95-.62-1.2-.61-.76,1-1,1.23a4.74,4.74,0,0,1-1.67.48c-1.15,0-2.22-.16-2.6-1.47a2.92,2.92,0,0,1-.15-.65,2.77,2.77,0,0,1,.22-.65c.93-2.42,2.82-1,2.82-2.12a6.14,6.14,0,0,0-.45-1.92c-.37-.39-1.91,0-1.89-.68a5.77,5.77,0,0,1,.08-1c.11-.69,1.74-.2,2.21-.47s0-1.88.26-2,1.37,0,1.47-.16a.66.66,0,0,0,0-.14Zm-3.26,9.23c0,.18.82.5,1,.5a3.23,3.23,0,0,0,1.07-.31.68.68,0,0,0,0-.14c0-.92-.59-.82-1.2-.82C246,150,245.34,150.45,245.34,150.73Zm4.34-9.63c0-.22.43-.44.55-.45s.69,1.31.72,1.59-.33.31-.45.32S249.69,141.31,249.68,141.1Z" transform="translate(-202.12 -75.71)"/><path class="cls-1" d="M251.85,145.35a7.82,7.82,0,0,1,1.28,0,9.81,9.81,0,0,0,1.88-.17c.45-.07.86-.32,1.31-.41l1.1-.24c.64-.14,1.3-.11,1.92-.26.36-.09.7-.25,1.06-.34s.27,0,.33.26.59,2.13.21,2.23-.7.11-1,.17c-.55.09-1.06.25-1.61.35s-.91.12-1.36.21-1.1.31-1.67.4-1,.1-1.48.17-1,.2-1.53.25a.61.61,0,0,1-.3,0,8.22,8.22,0,0,1-.39-2.21C251.53,145.42,251.6,145.37,251.85,145.35Z" transform="translate(-202.12 -75.71)"/><path class="cls-1" d="M264.67,140.05a3.3,3.3,0,0,1,.82-.34c.51-.21.21-.85,0-1.36-.12-.31-.32-.58-.44-.89s.76-.65.95-.74a.45.45,0,0,1,.23,0c.27.07.87,1.94,1.17,2.06a4.38,4.38,0,0,0,1.13-.5c1-.45,1-.78,1.6.41a16.19,16.19,0,0,1,.66,1.89,20.91,20.91,0,0,0,.94,2.19c.23.48.54.91.77,1.39a5.53,5.53,0,0,1,.32,1.08,3,3,0,0,1,.16.93,2.84,2.84,0,0,1-1.76,2.17.47.47,0,0,1-.28,0,4.34,4.34,0,0,1-1.2-1.18c-.19-.45,1.19-.92,1.27-1.27.13-.54-1.2-4-1.58-4.84-.29-.62-.31-1-.92-.7s-.36.45-.08,1.1a12.3,12.3,0,0,1,1,4c0,.42-.14.82-.18,1.23s-.32,2.4-.8,2.58a.71.71,0,0,1-.45-.09,1.33,1.33,0,0,1-.51-.27c-.28-.24-.5-1.21-.9-1.07a10.32,10.32,0,0,0-1.74,1.25c-.26.16-.55.31-.83.45s-.53.42-.82.5-.94-1.37-1-1.62.36-.26.47-.42a7.43,7.43,0,0,0,.65-2.92c-.13-.34-2.34-1.65-2.49-2a12.63,12.63,0,0,1,.3-1.72c.15,0,.26.13.39.19l.07,0c.2-.69-.22-2.79,0-3.13l0,0a2.86,2.86,0,0,1,1.63.29,1.3,1.3,0,0,1-.05.52c-.15.82.08,1.56,0,2.35a3.26,3.26,0,0,0-.12.87c0,.13.45.53.54.5s0-2.24.27-2.34.74.06,1-.05v-.09a3.54,3.54,0,0,1-.19-.33Zm.21,5.35a3.18,3.18,0,0,0-.24,1.31c0,.06.13,0,.16,0s.87-.29.79-.52A2.52,2.52,0,0,0,264.88,145.4Zm2.58.43a4.48,4.48,0,0,0,0-1.1,7.51,7.51,0,0,0-.14-1.55c-.09-.29-.23-.58-.3-.87a7.85,7.85,0,0,0-.26-.95c-.07-.17-.23-.12-.34-.08a3.76,3.76,0,0,0-1.06.59c-.08.14-.29,2.57-.29,2.84.29-.13.6-.56.8-.63C266.23,143.94,267.2,145.55,267.46,145.83Z" transform="translate(-202.12 -75.71)"/><path class="cls-1" d="M274.93,141.37c.51.95,1.14,1.86,1.68,2.8a6.5,6.5,0,0,1,.25.61c.32.75,0,.82-.63,1.15-.13.06-.39.23-.52.2a3.73,3.73,0,0,1-.77-1c-.26-.5-.36-1.08-.64-1.55a4.88,4.88,0,0,0-.58-.87c-.06.53.13,1.54-.14,2a5.08,5.08,0,0,1-1.34-1.19c0-.34.09-.66.07-1s-.07-.85-.11-1.28a5.92,5.92,0,0,0-.1-1,.22.22,0,0,0-.07-.09c-.57-.06-.85.79-1.3-.12-.15-.3-.64-1.12-.28-1.29.1-.05.82-.38.88-.55s-.14-.42-.21-.55-.24-.56-.45-.45-.37.34-.59.46a.41.41,0,0,1-.19.05,3.68,3.68,0,0,1-.81-.92c-.13-.27.4-.58.54-.7.41-.34,1.3-1.69,1.56-1.85s1.23.48,1.37.7-.5.84-.5,1.19a1.55,1.55,0,0,0,.26.64c.34.6.32.7.79.43a1.36,1.36,0,0,0,.36-.27c.47-.74-.7-3.68-.3-3.94.16-.09,1.14-.39,1.29-.17.33.5.33,1.13.61,1.62a1.57,1.57,0,0,0,.49-.27c.37-.24-.76-2-.48-2.18s.66-.26.95-.47c.06-.05.21-.19.3-.07.31.42.36,1.13.64,1.52s.62-.42.94-.34.63.63.77.81c.45.61-1.07.91-.63,1.52.18.26.35.62.65.41s.35-.36.56-.51.5.21.67.45c.68.9.24.81-.44,1.3-.17.12-.17.24,0,.44s.34.51.51.57a.61.61,0,0,0,.18-.08c.2-.14.35-.37.54-.51s1,.66,1.19.9c.4.55-1.14.87-.78,1.38.09.12.41.58.58.46s.46-.45.72-.64.56-.58.85-.2c.9,1.19.7,1.14-.22,1.83-.41.3-.72.7-1.14,1s-.68.37-1,.57a6.43,6.43,0,0,0-.72.55v.1a1.56,1.56,0,0,1,.16.28c0,.22-.66.59-.86.71-.77.47-.8.22-1.25-.53-.33-.55-.5-1.17-.83-1.72-.22-.35-.47-.68-.71-1-.69-1-1.24-2.09-2.39-2.55a.9.9,0,0,0,.18.31v.11a3.36,3.36,0,0,1-.74.48v.11l0,.06c.44.28,1.69.31,1.92.69a4.23,4.23,0,0,1-.06,1.71c-.09.05-.67-.42-.81-.48Zm1.85-5.45c-.12-.19-.22-.36-.43-.22a2,2,0,0,0-.56.49.22.22,0,0,0,0,.14c.42.67.57.53,1.11.17a.36.36,0,0,0,.1-.11.38.38,0,0,0,0-.17Zm2,4.61a.19.19,0,0,0,0,.3c.34.53.49.75,1,.42.15-.1.45-.25.29-.49l-.34-.51c-.16-.23-.46,0-.61.09Zm-.6-1.59a.75.75,0,0,0,.31-.3,2.29,2.29,0,0,0-.39-.76.2.2,0,0,0-.29-.06c-.66.43-.64.54-.19,1.24,0,.05.09.07.13.1l.16,0Z" transform="translate(-202.12 -75.71)"/><path class="cls-1" d="M282.07,137.24c-.27-.36-.52-.76-.8-1.13s-.64-.63-.92-1-.45-.85-.75-1.23-.73-.74-1.05-1.17-.7-1-1-1.44c-.09-.12-.27-.34-.27-.47s.7-.77.86-.9c.44-.35.93-.67,1.36-1s.94-1,1.45-1.5c.36-.33.79-.56,1.14-.91.54-.53,1.05-1.1,1.58-1.66.13-.14.31-.48.58-.24a7.08,7.08,0,0,1,.5.59,10.54,10.54,0,0,0,1,.93c.41.37.86.67,1.26,1,.69.63,1.34,1.33,2,2,.31.28.69.47,1,.75.52.47.95,1,1.48,1.51.34.31.69.65,1,1,.52.52.29.64-.16,1.11-.1.11-.52.59-.66.54s-.1-.17-.16-.24h-.1l-.17.14-1,1c-.53.51-1,1.12-1.51,1.61-.33.3-.67.57-1,.87s-.56.6-.87.86-.6.43-.88.66c-.08.07-.19.14-.18.27a1.56,1.56,0,0,1,.16.28c0,.17-.09.22-.21.32s-1,.93-1.25.55-.42-.65-.65-1-.63-.68-.92-1.06Zm2.32-3.19c-.24.21-.43.45-.68.65s-.26.2-.38.05c-.27-.32-.5-.67-.76-1-.06-.07-.49-.55-.49-.67s1-.93,1.15-1.06c.38-.34.85-.57,1.22-.91s.42-.62.69-.88.7-.6.86-.59.46.43.66.63a1.48,1.48,0,0,0,1.67.57c0-.07-.08-.14-.13-.19-.67-.68-1.38-1.31-2-2-.41-.41-.76-.85-1.18-1.25-.64-.63-.68-.87-1.18-.36s-.87,1.06-1.37,1.53c-.21.2-.47.35-.68.54-.46.42-.86.91-1.33,1.31-.29.24-.62.41-.91.63a.29.29,0,0,0-.08.14,1.18,1.18,0,0,0,.29.49l.45.55c.57.72,1.22,1.41,1.81,2.14.27.34.47.75.74,1.1.14.16.66.75.84.76l.07,0a7.66,7.66,0,0,0,.93-2.3Zm5.17-2s-.3-.3-.36-.26c0,.29.1,1.24-.08,1.41-.49.49-1.49.43-2.06.69a.34.34,0,0,0,.09.12c.14.15.33.27.47.43s-.09.39-.22.52c-1.12,1-.71.67-1.58.09-.33.41-.36,1.07-.8,1.45-.21.17-.95-.08-1.28,0a3.48,3.48,0,0,0,.57.86c.29.37,1-.2,1.25-.43.51-.42,1-.89,1.48-1.34s.85-.92,1.3-1.34.7-.48,1-.78.76-.85.5-1.1Zm-5.79-2.16.14-.11c.29-.25.5-.58.78-.85s.51-.71,1-.23c.12.12.26.24.28.39a.46.46,0,0,1-.09.15c-.34.34-.74.65-1.09,1l-.56.53c-.65.61-1.22,1.28-1.9,1.86s-.82.87-1.48.05c-.29-.36,1.21-1.36,1.42-1.56a.41.41,0,0,0,.16-.21l-.05-.08a.31.31,0,0,0-.13-.08c-.2.16-.38.35-.57.51a3.23,3.23,0,0,1-.87.55c-.12,0-.22-.16-.29-.25l-.25-.29a.44.44,0,0,1,0-.15.3.3,0,0,1,.09-.13c.32-.27.68-.47,1-.75a3.31,3.31,0,0,0,.26-.27.46.46,0,0,0-.13-.22c0-.14.59-.73.71-.84s.17-.2.29-.18.21.17.31.15a8.27,8.27,0,0,0,1-.94c.11-.11.3-.41.51-.21.67.67.42.74,0,1.18l-.48.46c-.06.06-.34.29-.25.39a.6.6,0,0,0,.2.14Zm1.24,2.61c.19-.17.76-.78.74-1a1,1,0,0,0-.19-.29c-.07-.07-.22.07-.26.11l-.32.3a11.79,11.79,0,0,0-1.14,1.2c0,.05-.17.18-.1.25a.86.86,0,0,0,.26.21h.12l.16-.09Zm1.92-.73-.22.19a4.4,4.4,0,0,0-.4.46.7.7,0,0,0,.55,0A1.19,1.19,0,0,0,286.93,131.8Zm1.6-.77a.13.13,0,0,0-.12,0,4,4,0,0,0-.38,1.16,3.21,3.21,0,0,0,.77-.46C289,131.45,288.72,131.22,288.53,131Z" transform="translate(-202.12 -75.71)"/><path class="cls-1" d="M214.77,121.65S210.6,102.58,228,98.4s42.25,4.42,47.94,17.44c2.08,5.81.28,23.74-23.12,18.83-6.82-1.43-12.56,1.32-17.17.94C222.91,134.57,218,130.54,214.77,121.65Z" transform="translate(-202.12 -75.71)"/><path class="cls-1" d="M221.34,96.26s-9.6-.89-4.17-12,9.72-3.79,10.74,0S226.77,96.26,221.34,96.26Z" transform="translate(-202.12 -75.71)"/><path class="cls-1" d="M235.36,91.7s-7.83-2.14-4.93-9.47,4.42-6.69,7.71-6.31,4.8,7.45,1.89,12.75C238.52,91.07,236.68,92.22,235.36,91.7Z" transform="translate(-202.12 -75.71)"/><path class="cls-1" d="M248.75,94.36s-7.83-2.15-4.93-9.48,4.42-6.69,7.71-6.31,4.8,7.45,1.89,12.76C251.91,93.73,250.07,94.87,248.75,94.36Z" transform="translate(-202.12 -75.71)"/><path class="cls-1" d="M260.54,98.15s-7.83-2.15-4.93-9.47,4.42-6.7,7.71-6.32,4.8,7.45,1.89,12.76C263.7,97.52,261.86,98.67,260.54,98.15Z" transform="translate(-202.12 -75.71)"/><path class="cls-1" d="M272.33,106.21s-7.83-2.15-4.93-9.48,4.42-6.69,7.71-6.31,4.8,7.45,1.89,12.76C275.48,105.58,273.64,106.72,272.33,106.21Z" transform="translate(-202.12 -75.71)"/></svg>